<svg width="80" height="80" viewBox="0 0 80 80" fill="none" xmlns="http://www.w3.org/2000/svg">
<rect width="80" height="80" fill="#EEEEEE"/>
<g opacity="0.7">
<path d="M28.6305 44.8572L30.8631 44.0474L30.0533 41.8148L27.8207 42.6246L28.6305 44.8572Z" fill="#363636"/>
<path d="M41.1543 43.3452L35.3759 39.8777L32.2872 41.0023L33.0994 43.2336L35.1241 42.4974L41.2207 46.1549L48.4645 41.3253L56.625 44.3855V56.6251H23.375V46.7688L26.4031 45.6668L25.5921 43.4367L21 45.1063V59.0001H59V42.7396L48.1605 38.6748L41.1543 43.3452Z" fill="#363636"/>
<path d="M21 21V41.6957L25.9412 39.8979L25.1301 37.6666L23.375 38.3042V23.375H56.625V35.9114L48.1605 32.7372L41.1543 37.4077L35.3759 33.9402L31.8253 35.231L32.6375 37.4623L35.1241 36.5598L41.2207 40.2173L48.4645 35.3878L59 39.3386V21H21Z" fill="#363636"/>
<path d="M27.3621 36.8558L28.1737 39.0864L30.4055 38.2744L29.5939 36.0437L27.3621 36.8558Z" fill="#363636"/>
</g>
</svg>
