<svg width="577" height="372" viewBox="0 0 577 372" fill="none" xmlns="http://www.w3.org/2000/svg">
<g opacity="0.8" clip-path="url(#clip0)">
<path d="M483.264 173.224C474.817 173.224 467.97 166.408 467.97 157.999C467.97 149.59 474.817 142.773 483.264 142.773C491.71 142.773 498.558 149.59 498.558 157.999C498.558 166.408 491.71 173.224 483.264 173.224Z" fill="#FFB8B8"/>
<path d="M534.942 340.454L531.069 347.004L503.85 335.25L509.566 325.584L534.942 340.454Z" fill="#FFB8B8"/>
<path d="M533.781 337.525L526.155 350.423L526.154 350.424C525.516 351.503 525.098 352.697 524.923 353.938C524.749 355.178 524.821 356.441 525.136 357.653C525.452 358.866 526.004 360.005 526.762 361.005C527.519 362.005 528.467 362.847 529.552 363.482L529.82 363.639L542.306 342.521L533.781 337.525Z" fill="#363636"/>
<path d="M490.072 364.05L482.438 364.049L478.806 334.735L490.073 334.735L490.072 364.05Z" fill="#FFB8B8"/>
<path d="M492.019 361.568L476.985 361.568H476.985C475.726 361.568 474.481 361.815 473.318 362.294C472.156 362.773 471.099 363.476 470.21 364.361C469.32 365.247 468.614 366.299 468.133 367.456C467.651 368.613 467.404 369.853 467.404 371.106V371.416L492.019 371.417L492.019 361.568Z" fill="#363636"/>
<path d="M520.764 346.289C521.203 346.289 521.636 346.187 522.028 345.989C522.42 345.792 522.76 345.505 523.02 345.153L530.383 335.198C530.607 334.894 530.768 334.548 530.854 334.181C530.941 333.814 530.952 333.433 530.886 333.062C530.821 332.69 530.681 332.336 530.474 332.02C530.267 331.704 529.998 331.433 529.683 331.224L496.92 309.439L516.689 257.692L474.415 261.165L472.991 305.634C472.857 309.684 473.832 313.693 475.811 317.234C477.791 320.774 480.7 323.712 484.227 325.734L519.364 345.914C519.789 346.16 520.272 346.289 520.764 346.289Z" fill="#363636"/>
<path d="M489.842 358.098C490.567 358.097 491.263 357.816 491.784 357.314C492.305 356.812 492.611 356.129 492.637 355.408L494.186 312.087L475.002 311.081L476.529 354.713C476.552 355.404 476.832 356.062 477.316 356.559C477.799 357.055 478.451 357.355 479.145 357.399L489.651 358.092C489.715 358.096 489.778 358.098 489.842 358.098Z" fill="#363636"/>
<path d="M469.522 269.768C474.403 269.768 491.451 264.303 497.37 262.354C498.255 263.06 503.119 266.681 508.797 266.019C512.3 265.61 515.384 263.635 517.963 260.151C523.659 252.455 516.624 219.453 509.72 193.122C508.335 187.8 504.932 183.219 500.226 180.343C495.52 177.467 489.876 176.519 484.483 177.699C480.573 178.558 476.982 180.486 474.113 183.265C471.243 186.044 469.209 189.564 468.238 193.431C466.938 198.699 468.056 204.896 468.873 209.421C469.257 211.548 469.56 213.229 469.456 214.055C469.056 217.246 466.829 267.3 468.261 269.437C468.413 269.665 468.854 269.768 469.522 269.768Z" fill="#B50000"/>
<path d="M487.378 269.857C486.594 269.275 485.947 268.53 485.483 267.673C485.019 266.815 484.75 265.867 484.694 264.895C484.638 263.923 484.797 262.951 485.159 262.047C485.522 261.143 486.079 260.328 486.792 259.662L486.489 199.007L500.839 201.386L496.624 260.259C497.67 261.526 498.213 263.13 498.15 264.768C498.087 266.405 497.423 267.964 496.283 269.147C495.143 270.329 493.607 271.055 491.966 271.186C490.325 271.317 488.692 270.844 487.378 269.857Z" fill="#FFB8B8"/>
<path d="M484.059 237.96H499.515C500.253 237.958 500.961 237.667 501.485 237.149C502.01 236.632 502.309 235.93 502.317 235.196L502.697 193.481C502.71 192.038 502.436 190.607 501.89 189.271C501.344 187.935 500.538 186.72 499.517 185.696C498.497 184.672 497.282 183.859 495.944 183.306C494.607 182.752 493.172 182.467 491.723 182.469C490.274 182.471 488.84 182.759 487.503 183.316C486.167 183.873 484.954 184.688 483.936 185.715C482.918 186.741 482.115 187.958 481.572 189.296C481.03 190.633 480.759 192.065 480.776 193.507L481.257 235.202C481.268 235.936 481.568 236.636 482.092 237.151C482.616 237.667 483.322 237.957 484.059 237.96Z" fill="#B50000"/>
<path d="M487.158 173.161C494.16 173.173 500.766 167.663 501.98 160.798C502.414 158.1 502.218 155.34 501.407 152.73C500.527 149.76 499.017 147.011 496.979 144.671C494.941 142.33 492.423 140.452 489.594 139.162C486.766 137.872 483.692 137.201 480.581 137.194C477.47 137.187 474.393 137.845 471.558 139.121C469.685 139.965 467.84 141.177 466.982 143.038C466.125 144.898 466.661 147.498 468.538 148.335C469.764 148.882 471.303 148.614 472.39 149.399C473.953 150.527 473.551 152.927 472.853 154.718C472.155 156.51 471.366 158.678 472.536 160.206C473.626 161.63 475.804 161.586 477.52 161.05C479.236 160.514 480.93 159.616 482.719 159.799C485.328 160.065 487.203 162.649 487.55 165.237C487.897 167.826 487.08 170.413 486.274 172.898L487.158 173.161Z" fill="#363636"/>
<path d="M415.723 372H576.377C576.542 372 576.701 371.935 576.818 371.818C576.934 371.702 577 371.545 577 371.38C577 371.216 576.934 371.058 576.818 370.942C576.701 370.826 576.542 370.76 576.377 370.76H415.723C415.558 370.76 415.399 370.826 415.282 370.942C415.166 371.058 415.1 371.216 415.1 371.38C415.1 371.545 415.166 371.702 415.282 371.818C415.399 371.935 415.558 372 415.723 372Z" fill="#CCCCCC"/>
<path d="M10.2746 269.381H409.32C412.044 269.378 414.655 268.3 416.581 266.382C418.507 264.465 419.591 261.865 419.594 259.153V14.1922C419.592 12.2055 418.798 10.3008 417.387 8.8959C415.976 7.49104 414.063 6.70078 412.067 6.69849H7.6575C5.62735 6.70078 3.68097 7.50469 2.24545 8.93384C0.809906 10.363 0.00247192 12.3007 0.000183105 14.3218V259.153C0.00326538 261.865 1.0867 264.465 3.01288 266.382C4.93903 268.3 7.55063 269.378 10.2746 269.381Z" fill="#F2F2F2"/>
<path d="M23.1766 256.467H395.076C400.528 256.467 404.963 252.332 404.963 247.25V33.9353C404.963 30.1662 401.676 27.0996 397.637 27.0996H20.7375C16.6307 27.0996 13.2896 30.2167 13.2896 34.0479V247.25C13.2896 252.332 17.725 256.467 23.1766 256.467Z" fill="white"/>
<path d="M0.143127 15.4669H419.738V10.2594C419.734 7.53856 418.646 4.93037 416.713 3.00702C414.78 1.08368 412.159 0.00225609 409.426 0H10.455C7.72189 0.00223315 5.10129 1.08365 3.16812 3.00699C1.23495 4.93034 0.147064 7.53855 0.143127 10.2594V15.4669Z" fill="#C7C7C7"/>
<path d="M400.998 10.4042C399.525 10.4042 398.331 9.21536 398.331 7.74885C398.331 6.28234 399.525 5.09351 400.998 5.09351C402.471 5.09351 403.665 6.28234 403.665 7.74885C403.665 9.21536 402.471 10.4042 400.998 10.4042Z" fill="white"/>
<path d="M390.874 10.4042C389.401 10.4042 388.206 9.21536 388.206 7.74885C388.206 6.28234 389.401 5.09351 390.874 5.09351C392.347 5.09351 393.541 6.28234 393.541 7.74885C393.541 9.21536 392.347 10.4042 390.874 10.4042Z" fill="white"/>
<path d="M380.749 10.4042C379.276 10.4042 378.082 9.21536 378.082 7.74885C378.082 6.28234 379.276 5.09351 380.749 5.09351C382.223 5.09351 383.417 6.28234 383.417 7.74885C383.417 9.21536 382.223 10.4042 380.749 10.4042Z" fill="white"/>
<path d="M217.949 73.7412H290.685C291.769 73.7412 292.809 73.3124 293.576 72.549C294.343 71.7856 294.773 70.7503 294.773 69.6708C294.773 68.5912 294.343 67.5559 293.576 66.7925C292.809 66.0292 291.769 65.6003 290.685 65.6003H217.949C216.865 65.6003 215.825 66.0292 215.058 66.7925C214.291 67.5559 213.861 68.5912 213.861 69.6708C213.861 70.7503 214.291 71.7856 215.058 72.549C215.825 73.3124 216.865 73.7412 217.949 73.7412Z" fill="#CCCCCC"/>
<path d="M127.568 73.7412H200.303C201.388 73.7412 202.428 73.3124 203.194 72.549C203.961 71.7856 204.392 70.7503 204.392 69.6708C204.392 68.5912 203.961 67.5559 203.194 66.7925C202.428 66.0292 201.388 65.6003 200.303 65.6003H127.568C126.483 65.6003 125.443 66.0292 124.677 66.7925C123.91 67.5559 123.479 68.5912 123.479 69.6708C123.479 70.7503 123.91 71.7856 124.677 72.549C125.443 73.3124 126.483 73.7412 127.568 73.7412Z" fill="#CCCCCC"/>
<path d="M127.568 89.1662H254.102C255.186 89.1662 256.226 88.7374 256.993 87.974C257.76 87.2107 258.19 86.1754 258.19 85.0958C258.19 84.0163 257.76 82.9809 256.993 82.2176C256.226 81.4542 255.186 81.0254 254.102 81.0254H127.568C126.483 81.0254 125.443 81.4542 124.677 82.2176C123.91 82.9809 123.479 84.0163 123.479 85.0958C123.479 86.1754 123.91 87.2107 124.677 87.974C125.443 88.7374 126.483 89.1662 127.568 89.1662Z" fill="#CCCCCC"/>
<path d="M217.949 58.1023H290.685C291.768 58.1009 292.807 57.6715 293.573 56.9083C294.338 56.1451 294.768 55.1105 294.768 54.0318C294.768 52.9532 294.338 51.9186 293.573 51.1554C292.807 50.3922 291.768 49.9628 290.685 49.9614H217.949C217.412 49.9608 216.88 50.0656 216.383 50.2698C215.886 50.4741 215.435 50.7738 215.055 51.1518C214.675 51.5299 214.373 51.9788 214.167 52.473C213.961 52.9672 213.855 53.4969 213.855 54.0318C213.855 54.5668 213.961 55.0965 214.167 55.5907C214.373 56.0849 214.675 56.5338 215.055 56.9119C215.435 57.2899 215.886 57.5896 216.383 57.7939C216.88 57.9981 217.412 58.1029 217.949 58.1023Z" fill="#CCCCCC"/>
<path d="M177.923 58.3166H198.582C199.666 58.3166 200.706 57.8878 201.473 57.1244C202.24 56.3611 202.671 55.3257 202.671 54.2462C202.671 53.1667 202.24 52.1313 201.473 51.368C200.706 50.6046 199.666 50.1758 198.582 50.1758H177.923C176.839 50.1758 175.799 50.6046 175.032 51.368C174.265 52.1313 173.834 53.1667 173.834 54.2462C173.834 55.3257 174.265 56.3611 175.032 57.1244C175.799 57.8878 176.839 58.3166 177.923 58.3166Z" fill="#CCCCCC"/>
<path d="M270.026 89.1662H290.685C291.768 89.1649 292.807 88.7355 293.573 87.9723C294.338 87.2091 294.768 86.1745 294.768 85.0958C294.768 84.0171 294.338 82.9826 293.573 82.2194C292.807 81.4562 291.768 81.0267 290.685 81.0254H270.026C269.489 81.0247 268.957 81.1295 268.46 81.3338C267.963 81.5381 267.512 81.8378 267.132 82.2158C266.752 82.5938 266.45 83.0428 266.244 83.537C266.038 84.0311 265.932 84.5609 265.932 85.0958C265.932 85.6308 266.038 86.1605 266.244 86.6546C266.45 87.1488 266.752 87.5978 267.132 87.9758C267.512 88.3538 267.963 88.6536 268.46 88.8578C268.957 89.0621 269.489 89.1669 270.026 89.1662Z" fill="#CCCCCC"/>
<path d="M217.949 218.181H290.685C291.769 218.181 292.809 217.752 293.576 216.989C294.343 216.225 294.773 215.19 294.773 214.11C294.773 213.031 294.343 211.996 293.576 211.232C292.809 210.469 291.769 210.04 290.685 210.04H217.949C217.412 210.04 216.881 210.145 216.385 210.35C215.889 210.554 215.438 210.854 215.058 211.232C214.678 211.61 214.377 212.059 214.172 212.553C213.966 213.047 213.861 213.576 213.861 214.11C213.861 214.645 213.966 215.174 214.172 215.668C214.377 216.162 214.678 216.611 215.058 216.989C215.438 217.367 215.889 217.666 216.385 217.871C216.881 218.076 217.412 218.181 217.949 218.181Z" fill="#CCCCCC"/>
<path d="M127.568 218.181H200.303C201.388 218.181 202.428 217.752 203.194 216.989C203.961 216.225 204.392 215.19 204.392 214.11C204.392 213.031 203.961 211.996 203.194 211.232C202.428 210.469 201.388 210.04 200.303 210.04H127.568C127.031 210.04 126.499 210.145 126.003 210.35C125.507 210.554 125.056 210.854 124.677 211.232C124.297 211.61 123.996 212.059 123.79 212.553C123.585 213.047 123.479 213.576 123.479 214.11C123.479 214.645 123.585 215.174 123.79 215.668C123.996 216.162 124.297 216.611 124.677 216.989C125.056 217.367 125.507 217.666 126.003 217.871C126.499 218.076 127.031 218.181 127.568 218.181Z" fill="#CCCCCC"/>
<path d="M127.568 233.606H254.102C255.186 233.606 256.226 233.177 256.993 232.413C257.76 231.65 258.19 230.615 258.19 229.535C258.19 228.456 257.76 227.42 256.993 226.657C256.226 225.894 255.186 225.465 254.102 225.465H127.568C127.03 225.464 126.498 225.569 126.001 225.773C125.505 225.978 125.054 226.277 124.673 226.655C124.293 227.033 123.991 227.482 123.786 227.976C123.58 228.471 123.474 229 123.474 229.535C123.474 230.07 123.58 230.6 123.786 231.094C123.991 231.588 124.293 232.037 124.673 232.415C125.054 232.793 125.505 233.093 126.001 233.297C126.498 233.502 127.03 233.606 127.568 233.606Z" fill="#CCCCCC"/>
<path d="M217.949 202.542H290.685C291.769 202.542 292.809 202.113 293.576 201.35C294.343 200.586 294.773 199.551 294.773 198.471C294.773 197.392 294.343 196.356 293.576 195.593C292.809 194.83 291.769 194.401 290.685 194.401H217.949C216.865 194.401 215.825 194.83 215.058 195.593C214.291 196.356 213.861 197.392 213.861 198.471C213.861 199.551 214.291 200.586 215.058 201.35C215.825 202.113 216.865 202.542 217.949 202.542Z" fill="#CCCCCC"/>
<path d="M177.923 202.756H198.582C199.666 202.756 200.706 202.327 201.473 201.564C202.24 200.801 202.671 199.765 202.671 198.686C202.671 197.606 202.24 196.571 201.473 195.807C200.706 195.044 199.666 194.615 198.582 194.615H177.923C176.839 194.615 175.799 195.044 175.032 195.807C174.265 196.571 173.834 197.606 173.834 198.686C173.834 199.765 174.265 200.801 175.032 201.564C175.799 202.327 176.839 202.756 177.923 202.756Z" fill="#CCCCCC"/>
<path d="M270.026 233.606H290.685C291.769 233.606 292.809 233.177 293.576 232.413C294.343 231.65 294.773 230.615 294.773 229.535C294.773 228.456 294.343 227.42 293.576 226.657C292.809 225.894 291.769 225.465 290.685 225.465H270.026C269.489 225.464 268.957 225.569 268.46 225.773C267.963 225.978 267.512 226.277 267.132 226.655C266.752 227.033 266.45 227.482 266.244 227.976C266.038 228.471 265.932 229 265.932 229.535C265.932 230.07 266.038 230.6 266.244 231.094C266.45 231.588 266.752 232.037 267.132 232.415C267.512 232.793 267.963 233.093 268.46 233.297C268.957 233.502 269.489 233.606 270.026 233.606Z" fill="#CCCCCC"/>
<path d="M236.945 174.482C238.489 174.485 239.972 173.881 241.07 172.802L268.411 145.923C268.948 145.395 269.374 144.766 269.665 144.073C269.956 143.381 270.106 142.637 270.106 141.886C270.106 141.135 269.956 140.391 269.665 139.699C269.374 139.006 268.948 138.377 268.411 137.849L241.18 111.079C240.046 109.969 238.518 109.349 236.927 109.354C235.337 109.359 233.812 109.989 232.685 111.105C231.556 112.231 230.922 113.757 230.922 115.348C230.922 116.938 231.556 118.464 232.685 119.59L252.92 139.735C253.55 140.364 253.904 141.217 253.904 142.105C253.904 142.994 253.55 143.846 252.92 144.475L232.794 164.511C231.973 165.327 231.413 166.368 231.186 167.502C230.959 168.636 231.075 169.811 231.519 170.879C231.964 171.947 232.717 172.859 233.683 173.5C234.649 174.142 235.784 174.483 236.945 174.482V174.482Z" fill="#B50000"/>
<path d="M193.379 174.481C194.54 174.483 195.675 174.142 196.641 173.5C197.607 172.859 198.36 171.946 198.805 170.879C199.249 169.811 199.365 168.636 199.138 167.502C198.911 166.368 198.352 165.327 197.53 164.511L177.404 144.475C176.774 143.846 176.42 142.994 176.42 142.105C176.42 141.216 176.774 140.364 177.404 139.735L197.639 119.59C198.199 119.033 198.643 118.371 198.946 117.643C199.249 116.916 199.405 116.135 199.405 115.347C199.405 114.56 199.249 113.779 198.946 113.052C198.643 112.324 198.199 111.662 197.639 111.105C196.512 109.988 194.988 109.359 193.397 109.354C191.806 109.349 190.278 109.969 189.144 111.079L161.913 137.849C161.376 138.377 160.95 139.005 160.659 139.698C160.368 140.391 160.218 141.135 160.218 141.886C160.218 142.637 160.368 143.38 160.659 144.073C160.95 144.766 161.376 145.395 161.913 145.922L189.254 172.801C190.353 173.881 191.835 174.485 193.379 174.481Z" fill="#B50000"/>
</g>
<defs>
<clipPath id="clip0">
<rect width="577" height="372" fill="white" transform="matrix(-1 0 0 1 577 0)"/>
</clipPath>
</defs>
</svg>
