<svg width="610" height="461" viewBox="0 0 610 461" fill="none" xmlns="http://www.w3.org/2000/svg">
<g filter="url(#filter0_d)">
<path fill-rule="evenodd" clip-rule="evenodd" d="M279.422 16.284C333.251 19.3178 375.343 51.1896 414.387 80.2289C448.814 105.835 476.427 136.174 488.775 171.992C500.657 206.458 489.601 241.112 481.983 276.303C472.843 318.525 482.448 370.079 440.007 397.27C397.515 424.494 333.388 414.378 279.422 406.08C233.299 398.988 199.728 372.513 159.101 354.077C112.201 332.794 45.2976 328.534 23.3167 289.862C1.23656 251.015 34.408 207.605 53.1741 167.714C71.1952 129.406 89.7718 90.7547 129.488 64.1722C171.491 36.0588 224.199 13.1717 279.422 16.284Z" fill="url(#paint0_linear)" fill-opacity="0.95" shape-rendering="crispEdges"/>
</g>
<g opacity="0.8" clip-path="url(#clip0)">
<path d="M516.264 262.224C507.817 262.224 500.97 255.408 500.97 246.999C500.97 238.59 507.817 231.773 516.264 231.773C524.71 231.773 531.558 238.59 531.558 246.999C531.558 255.408 524.71 262.224 516.264 262.224Z" fill="#FFB8B8"/>
<path d="M567.942 429.454L564.069 436.004L536.85 424.25L542.566 414.584L567.942 429.454Z" fill="#FFB8B8"/>
<path d="M566.781 426.525L559.155 439.423L559.154 439.424C558.516 440.503 558.098 441.697 557.923 442.938C557.749 444.178 557.821 445.441 558.136 446.653C558.452 447.866 559.004 449.005 559.762 450.005C560.519 451.005 561.467 451.847 562.552 452.482L562.82 452.639L575.306 431.521L566.781 426.525Z" fill="#363636"/>
<path d="M523.072 453.05L515.438 453.049L511.806 423.735L523.073 423.735L523.072 453.05Z" fill="#FFB8B8"/>
<path d="M525.019 450.568L509.985 450.568H509.985C508.726 450.568 507.481 450.815 506.318 451.294C505.156 451.773 504.099 452.476 503.21 453.361C502.32 454.247 501.614 455.299 501.133 456.456C500.651 457.613 500.404 458.853 500.404 460.106V460.416L525.019 460.417L525.019 450.568Z" fill="#363636"/>
<path d="M553.764 435.289C554.203 435.289 554.636 435.187 555.028 434.989C555.42 434.792 555.76 434.505 556.02 434.153L563.383 424.198C563.607 423.894 563.768 423.548 563.854 423.181C563.941 422.814 563.952 422.433 563.886 422.062C563.821 421.69 563.681 421.336 563.474 421.02C563.267 420.704 562.998 420.433 562.683 420.224L529.92 398.439L549.689 346.692L507.415 350.165L505.991 394.634C505.857 398.684 506.832 402.693 508.811 406.234C510.791 409.774 513.7 412.712 517.227 414.734L552.364 434.914C552.789 435.16 553.272 435.289 553.764 435.289Z" fill="#363636"/>
<path d="M522.842 447.098C523.567 447.097 524.263 446.816 524.784 446.314C525.305 445.812 525.611 445.129 525.637 444.408L527.186 401.087L508.002 400.081L509.529 443.713C509.552 444.404 509.832 445.062 510.316 445.559C510.799 446.055 511.451 446.355 512.145 446.399L522.651 447.092C522.715 447.096 522.778 447.098 522.842 447.098Z" fill="#363636"/>
<path d="M502.522 358.768C507.403 358.768 524.451 353.303 530.37 351.354C531.255 352.06 536.119 355.681 541.797 355.019C545.3 354.61 548.384 352.635 550.963 349.151C556.659 341.455 549.624 308.453 542.72 282.122C541.335 276.8 537.932 272.219 533.226 269.343C528.52 266.467 522.876 265.519 517.483 266.699C513.573 267.558 509.982 269.486 507.113 272.265C504.243 275.044 502.209 278.564 501.238 282.431C499.938 287.699 501.056 293.896 501.873 298.421C502.257 300.548 502.56 302.229 502.456 303.055C502.056 306.246 499.829 356.3 501.261 358.437C501.413 358.665 501.854 358.768 502.522 358.768Z" fill="#B50000"/>
<path d="M520.378 358.857C519.594 358.275 518.947 357.53 518.483 356.673C518.019 355.815 517.75 354.867 517.694 353.895C517.638 352.923 517.797 351.951 518.159 351.047C518.522 350.143 519.079 349.328 519.792 348.662L519.489 288.007L533.839 290.386L529.624 349.259C530.67 350.526 531.213 352.13 531.15 353.768C531.087 355.405 530.423 356.964 529.283 358.147C528.143 359.329 526.607 360.055 524.966 360.186C523.325 360.317 521.692 359.844 520.378 358.857Z" fill="#FFB8B8"/>
<path d="M517.059 326.96H532.515C533.253 326.958 533.961 326.667 534.485 326.149C535.01 325.632 535.309 324.93 535.317 324.196L535.697 282.481C535.71 281.038 535.436 279.607 534.89 278.271C534.344 276.935 533.538 275.72 532.517 274.696C531.497 273.672 530.282 272.859 528.944 272.306C527.607 271.752 526.172 271.467 524.723 271.469C523.274 271.471 521.84 271.759 520.503 272.316C519.167 272.873 517.954 273.688 516.936 274.715C515.918 275.741 515.115 276.958 514.572 278.296C514.03 279.633 513.759 281.065 513.776 282.507L514.257 324.202C514.268 324.936 514.568 325.636 515.092 326.151C515.616 326.667 516.322 326.957 517.059 326.96Z" fill="#B50000"/>
<path d="M520.158 262.161C527.16 262.173 533.766 256.663 534.98 249.798C535.414 247.1 535.218 244.34 534.407 241.73C533.527 238.76 532.017 236.011 529.979 233.671C527.941 231.33 525.423 229.452 522.594 228.162C519.766 226.872 516.692 226.201 513.581 226.194C510.47 226.187 507.393 226.845 504.558 228.121C502.685 228.965 500.84 230.177 499.982 232.038C499.125 233.898 499.661 236.498 501.538 237.335C502.764 237.882 504.303 237.614 505.39 238.399C506.953 239.527 506.551 241.927 505.853 243.718C505.155 245.51 504.366 247.678 505.536 249.206C506.626 250.63 508.804 250.586 510.52 250.05C512.236 249.514 513.93 248.616 515.719 248.799C518.328 249.065 520.203 251.649 520.55 254.237C520.897 256.826 520.08 259.413 519.274 261.898L520.158 262.161Z" fill="#363636"/>
<path d="M448.723 461H609.377C609.542 461 609.701 460.935 609.818 460.818C609.934 460.702 610 460.545 610 460.38C610 460.216 609.934 460.058 609.818 459.942C609.701 459.826 609.542 459.76 609.377 459.76H448.723C448.558 459.76 448.399 459.826 448.282 459.942C448.166 460.058 448.1 460.216 448.1 460.38C448.1 460.545 448.166 460.702 448.282 460.818C448.399 460.935 448.558 461 448.723 461Z" fill="#CCCCCC"/>
<path d="M43.2746 358.381H442.32C445.044 358.378 447.655 357.3 449.581 355.382C451.507 353.465 452.591 350.865 452.594 348.153V103.192C452.592 101.205 451.798 99.3008 450.387 97.8959C448.976 96.491 447.063 95.7008 445.067 95.6985H40.6575C38.6273 95.7008 36.681 96.5047 35.2455 97.9338C33.8099 99.363 33.0025 101.301 33.0002 103.322V348.153C33.0033 350.865 34.0867 353.465 36.0129 355.382C37.939 357.3 40.5506 358.378 43.2746 358.381Z" fill="#F2F2F2"/>
<path d="M56.1766 345.467H428.076C433.528 345.467 437.963 341.332 437.963 336.25V122.935C437.963 119.166 434.676 116.1 430.637 116.1H53.7375C49.6307 116.1 46.2896 119.217 46.2896 123.048V336.25C46.2896 341.332 50.725 345.467 56.1766 345.467Z" fill="white"/>
<path d="M33.1431 104.467H452.738V99.2594C452.734 96.5386 451.646 93.9304 449.713 92.007C447.78 90.0837 445.159 89.0023 442.426 89H43.455C40.7219 89.0022 38.1013 90.0836 36.1681 92.007C34.235 93.9303 33.1471 96.5386 33.1431 99.2594V104.467Z" fill="#C7C7C7"/>
<path d="M433.998 99.4042C432.525 99.4042 431.331 98.2154 431.331 96.7488C431.331 95.2823 432.525 94.0935 433.998 94.0935C435.471 94.0935 436.665 95.2823 436.665 96.7488C436.665 98.2154 435.471 99.4042 433.998 99.4042Z" fill="white"/>
<path d="M423.874 99.4042C422.401 99.4042 421.206 98.2154 421.206 96.7488C421.206 95.2823 422.401 94.0935 423.874 94.0935C425.347 94.0935 426.541 95.2823 426.541 96.7488C426.541 98.2154 425.347 99.4042 423.874 99.4042Z" fill="white"/>
<path d="M413.749 99.4042C412.276 99.4042 411.082 98.2154 411.082 96.7488C411.082 95.2823 412.276 94.0935 413.749 94.0935C415.223 94.0935 416.417 95.2823 416.417 96.7488C416.417 98.2154 415.223 99.4042 413.749 99.4042Z" fill="white"/>
<path d="M250.949 162.741H323.685C324.769 162.741 325.809 162.312 326.576 161.549C327.343 160.786 327.773 159.75 327.773 158.671C327.773 157.591 327.343 156.556 326.576 155.793C325.809 155.029 324.769 154.6 323.685 154.6H250.949C249.865 154.6 248.825 155.029 248.058 155.793C247.291 156.556 246.861 157.591 246.861 158.671C246.861 159.75 247.291 160.786 248.058 161.549C248.825 162.312 249.865 162.741 250.949 162.741Z" fill="#CCCCCC"/>
<path d="M160.568 162.741H233.303C234.388 162.741 235.428 162.312 236.194 161.549C236.961 160.786 237.392 159.75 237.392 158.671C237.392 157.591 236.961 156.556 236.194 155.793C235.428 155.029 234.388 154.6 233.303 154.6H160.568C159.483 154.6 158.443 155.029 157.677 155.793C156.91 156.556 156.479 157.591 156.479 158.671C156.479 159.75 156.91 160.786 157.677 161.549C158.443 162.312 159.483 162.741 160.568 162.741Z" fill="#CCCCCC"/>
<path d="M160.568 178.166H287.102C288.186 178.166 289.226 177.737 289.993 176.974C290.76 176.211 291.19 175.175 291.19 174.096C291.19 173.016 290.76 171.981 289.993 171.218C289.226 170.454 288.186 170.025 287.102 170.025H160.568C159.483 170.025 158.443 170.454 157.677 171.218C156.91 171.981 156.479 173.016 156.479 174.096C156.479 175.175 156.91 176.211 157.677 176.974C158.443 177.737 159.483 178.166 160.568 178.166Z" fill="#CCCCCC"/>
<path d="M250.949 147.102H323.685C324.768 147.101 325.807 146.672 326.573 145.908C327.338 145.145 327.768 144.111 327.768 143.032C327.768 141.953 327.338 140.919 326.573 140.155C325.807 139.392 324.768 138.963 323.685 138.961H250.949C250.412 138.961 249.88 139.066 249.383 139.27C248.886 139.474 248.435 139.774 248.055 140.152C247.675 140.53 247.373 140.979 247.167 141.473C246.961 141.967 246.855 142.497 246.855 143.032C246.855 143.567 246.961 144.097 247.167 144.591C247.373 145.085 247.675 145.534 248.055 145.912C248.435 146.29 248.886 146.59 249.383 146.794C249.88 146.998 250.412 147.103 250.949 147.102Z" fill="#CCCCCC"/>
<path d="M210.923 147.317H231.582C232.666 147.317 233.706 146.888 234.473 146.124C235.24 145.361 235.671 144.326 235.671 143.246C235.671 142.167 235.24 141.131 234.473 140.368C233.706 139.605 232.666 139.176 231.582 139.176H210.923C209.839 139.176 208.799 139.605 208.032 140.368C207.265 141.131 206.834 142.167 206.834 143.246C206.834 144.326 207.265 145.361 208.032 146.124C208.799 146.888 209.839 147.317 210.923 147.317Z" fill="#CCCCCC"/>
<path d="M303.026 178.166H323.685C324.768 178.165 325.807 177.735 326.573 176.972C327.338 176.209 327.768 175.174 327.768 174.096C327.768 173.017 327.338 171.983 326.573 171.219C325.807 170.456 324.768 170.027 323.685 170.025H303.026C302.489 170.025 301.957 170.13 301.46 170.334C300.963 170.538 300.512 170.838 300.132 171.216C299.752 171.594 299.45 172.043 299.244 172.537C299.038 173.031 298.932 173.561 298.932 174.096C298.932 174.631 299.038 175.16 299.244 175.655C299.45 176.149 299.752 176.598 300.132 176.976C300.512 177.354 300.963 177.654 301.46 177.858C301.957 178.062 302.489 178.167 303.026 178.166Z" fill="#CCCCCC"/>
<path d="M250.949 307.181H323.685C324.769 307.181 325.809 306.752 326.576 305.989C327.343 305.225 327.773 304.19 327.773 303.11C327.773 302.031 327.343 300.996 326.576 300.232C325.809 299.469 324.769 299.04 323.685 299.04H250.949C250.412 299.04 249.881 299.145 249.385 299.35C248.889 299.554 248.438 299.854 248.058 300.232C247.678 300.61 247.377 301.059 247.172 301.553C246.966 302.047 246.861 302.576 246.861 303.11C246.861 303.645 246.966 304.174 247.172 304.668C247.377 305.162 247.678 305.611 248.058 305.989C248.438 306.367 248.889 306.666 249.385 306.871C249.881 307.076 250.412 307.181 250.949 307.181Z" fill="#CCCCCC"/>
<path d="M160.568 307.181H233.303C234.388 307.181 235.428 306.752 236.194 305.989C236.961 305.225 237.392 304.19 237.392 303.11C237.392 302.031 236.961 300.996 236.194 300.232C235.428 299.469 234.388 299.04 233.303 299.04H160.568C160.031 299.04 159.499 299.145 159.003 299.35C158.507 299.554 158.056 299.854 157.677 300.232C157.297 300.61 156.996 301.059 156.79 301.553C156.585 302.047 156.479 302.576 156.479 303.11C156.479 303.645 156.585 304.174 156.79 304.668C156.996 305.162 157.297 305.611 157.677 305.989C158.056 306.367 158.507 306.666 159.003 306.871C159.499 307.076 160.031 307.181 160.568 307.181Z" fill="#CCCCCC"/>
<path d="M160.568 322.606H287.102C288.186 322.606 289.226 322.177 289.993 321.413C290.76 320.65 291.19 319.615 291.19 318.535C291.19 317.456 290.76 316.42 289.993 315.657C289.226 314.894 288.186 314.465 287.102 314.465H160.568C160.03 314.464 159.498 314.569 159.001 314.773C158.505 314.978 158.054 315.277 157.673 315.655C157.293 316.033 156.991 316.482 156.786 316.976C156.58 317.471 156.474 318 156.474 318.535C156.474 319.07 156.58 319.6 156.786 320.094C156.991 320.588 157.293 321.037 157.673 321.415C158.054 321.793 158.505 322.093 159.001 322.297C159.498 322.502 160.03 322.606 160.568 322.606Z" fill="#CCCCCC"/>
<path d="M250.949 291.542H323.685C324.769 291.542 325.809 291.113 326.576 290.35C327.343 289.586 327.773 288.551 327.773 287.471C327.773 286.392 327.343 285.356 326.576 284.593C325.809 283.83 324.769 283.401 323.685 283.401H250.949C249.865 283.401 248.825 283.83 248.058 284.593C247.291 285.356 246.861 286.392 246.861 287.471C246.861 288.551 247.291 289.586 248.058 290.35C248.825 291.113 249.865 291.542 250.949 291.542Z" fill="#CCCCCC"/>
<path d="M210.923 291.756H231.582C232.666 291.756 233.706 291.327 234.473 290.564C235.24 289.801 235.671 288.765 235.671 287.686C235.671 286.606 235.24 285.571 234.473 284.807C233.706 284.044 232.666 283.615 231.582 283.615H210.923C209.839 283.615 208.799 284.044 208.032 284.807C207.265 285.571 206.834 286.606 206.834 287.686C206.834 288.765 207.265 289.801 208.032 290.564C208.799 291.327 209.839 291.756 210.923 291.756Z" fill="#CCCCCC"/>
<path d="M303.026 322.606H323.685C324.769 322.606 325.809 322.177 326.576 321.413C327.343 320.65 327.773 319.615 327.773 318.535C327.773 317.456 327.343 316.42 326.576 315.657C325.809 314.894 324.769 314.465 323.685 314.465H303.026C302.489 314.464 301.957 314.569 301.46 314.773C300.963 314.978 300.512 315.277 300.132 315.655C299.752 316.033 299.45 316.482 299.244 316.976C299.038 317.471 298.932 318 298.932 318.535C298.932 319.07 299.038 319.6 299.244 320.094C299.45 320.588 299.752 321.037 300.132 321.415C300.512 321.793 300.963 322.093 301.46 322.297C301.957 322.502 302.489 322.606 303.026 322.606Z" fill="#CCCCCC"/>
<path d="M269.945 263.482C271.489 263.485 272.972 262.881 274.07 261.802L301.411 234.923C301.948 234.395 302.374 233.766 302.665 233.073C302.956 232.381 303.106 231.637 303.106 230.886C303.106 230.135 302.956 229.391 302.665 228.699C302.374 228.006 301.948 227.377 301.411 226.849L274.18 200.079C273.046 198.969 271.518 198.349 269.927 198.354C268.337 198.359 266.812 198.989 265.685 200.105C264.556 201.231 263.922 202.757 263.922 204.348C263.922 205.938 264.556 207.464 265.685 208.59L285.92 228.735C286.55 229.364 286.904 230.217 286.904 231.105C286.904 231.994 286.55 232.846 285.92 233.475L265.794 253.511C264.973 254.327 264.413 255.368 264.186 256.502C263.959 257.636 264.075 258.811 264.519 259.879C264.964 260.947 265.717 261.859 266.683 262.5C267.649 263.142 268.784 263.483 269.945 263.482V263.482Z" fill="#B50000"/>
<path d="M226.379 263.481C227.54 263.483 228.675 263.142 229.641 262.5C230.607 261.859 231.36 260.946 231.805 259.879C232.249 258.811 232.365 257.636 232.138 256.502C231.911 255.368 231.352 254.327 230.53 253.511L210.404 233.475C209.774 232.846 209.42 231.994 209.42 231.105C209.42 230.216 209.774 229.364 210.404 228.735L230.639 208.59C231.199 208.033 231.643 207.371 231.946 206.643C232.249 205.916 232.405 205.135 232.405 204.347C232.405 203.56 232.249 202.779 231.946 202.052C231.643 201.324 231.199 200.662 230.639 200.105C229.512 198.988 227.988 198.359 226.397 198.354C224.806 198.349 223.278 198.969 222.144 200.079L194.913 226.849C194.376 227.377 193.95 228.005 193.659 228.698C193.368 229.391 193.218 230.135 193.218 230.886C193.218 231.637 193.368 232.38 193.659 233.073C193.95 233.766 194.376 234.395 194.913 234.922L222.254 261.801C223.353 262.881 224.835 263.485 226.379 263.481Z" fill="#B50000"/>
</g>
<defs>
<filter id="filter0_d" x="0" y="0" width="518" height="439" filterUnits="userSpaceOnUse" color-interpolation-filters="sRGB">
<feFlood flood-opacity="0" result="BackgroundImageFix"/>
<feColorMatrix in="SourceAlpha" type="matrix" values="0 0 0 0 0 0 0 0 0 0 0 0 0 0 0 0 0 0 127 0" result="hardAlpha"/>
<feOffset dx="4" dy="4"/>
<feGaussianBlur stdDeviation="10"/>
<feComposite in2="hardAlpha" operator="out"/>
<feColorMatrix type="matrix" values="0 0 0 0 0 0 0 0 0 0 0 0 0 0 0 0 0 0 0.25 0"/>
<feBlend mode="normal" in2="BackgroundImageFix" result="effect1_dropShadow"/>
<feBlend mode="normal" in="SourceGraphic" in2="effect1_dropShadow" result="shape"/>
</filter>
<linearGradient id="paint0_linear" x1="16" y1="215.5" x2="494" y2="215.5" gradientUnits="userSpaceOnUse">
<stop stop-color="#ED213A"/>
<stop offset="1" stop-color="#93291E"/>
</linearGradient>
<clipPath id="clip0">
<rect width="577" height="372" fill="white" transform="matrix(-1 0 0 1 610 89)"/>
</clipPath>
</defs>
</svg>
