<svg width="943" height="141" viewBox="0 0 943 141" fill="none" xmlns="http://www.w3.org/2000/svg">
<path d="M81.0757 141L54.5164 90.4391H54.3167V141H9.98462V0.0664062H75.8837C87.3328 0.0664062 97.1178 2.12335 105.239 6.23722C113.36 10.2184 119.417 15.7257 123.411 22.7591C127.538 29.6598 129.601 37.4895 129.601 46.2481C129.601 55.6702 126.939 64.0306 121.614 71.3295C116.422 78.6283 108.9 83.8702 99.0482 87.0551L129.801 141H81.0757ZM54.3167 60.9784H71.8898C76.1499 60.9784 79.345 60.0495 81.4751 58.1916C83.6052 56.201 84.6702 53.1488 84.6702 49.0349C84.6702 45.3191 83.5386 42.3996 81.2754 40.2763C79.1454 38.153 76.0168 37.0913 71.8898 37.0913H54.3167V60.9784ZM222.444 119.701H175.316L168.327 141H121.798L173.519 0.0664062H224.641L276.162 141H229.433L222.444 119.701ZM211.66 86.4579L198.88 47.2433L186.1 86.4579H211.66ZM409.844 141H365.512L318.584 70.1351V141H274.252V0.0664062H318.584L365.512 72.1257V0.0664062H409.844V141ZM503.359 141L462.222 79.889V141H417.89V0.0664062H462.222V59.3859L502.76 0.0664062H552.884L504.158 67.5473L556.079 141H503.359Z" fill="#B50000"/>
<path d="M943 2.76465H561.64V141H943V2.76465Z" fill="#363636"/>
<path d="M657.57 24.9265V48.2828H632.542V118.882H602.987V48.2828H578.225V24.9265H657.57ZM693.277 119.811C685.733 119.811 678.943 118.263 672.908 115.167C666.873 112.07 662.125 107.647 658.663 101.896C655.291 96.0569 653.604 89.2446 653.604 81.4592C653.604 73.6738 655.291 66.9058 658.663 61.1552C662.125 55.3162 666.873 50.8484 672.908 47.7519C678.943 44.6555 685.733 43.1072 693.277 43.1072C700.821 43.1072 707.61 44.6555 713.646 47.7519C719.681 50.8484 724.385 55.3162 727.757 61.1552C731.219 66.9058 732.949 73.6738 732.949 81.4592C732.949 89.2446 731.219 96.0569 727.757 101.896C724.385 107.647 719.681 112.07 713.646 115.167C707.61 118.263 700.821 119.811 693.277 119.811ZM693.277 94.3317C696.028 94.3317 698.336 93.2701 700.2 91.1468C702.063 88.935 702.995 85.7058 702.995 81.4592C702.995 77.2126 702.063 74.0277 700.2 71.9044C698.336 69.6926 696.028 68.5868 693.277 68.5868C690.526 68.5868 688.218 69.6926 686.354 71.9044C684.49 74.0277 683.558 77.2126 683.558 81.4592C683.558 85.7058 684.446 88.935 686.221 91.1468C688.085 93.2701 690.437 94.3317 693.277 94.3317ZM769.925 119.811C762.381 119.811 755.591 118.263 749.556 115.167C743.521 112.07 738.772 107.647 735.311 101.896C731.938 96.0569 730.252 89.2446 730.252 81.4592C730.252 73.6738 731.938 66.9058 735.311 61.1552C738.772 55.3162 743.521 50.8484 749.556 47.7519C755.591 44.6555 762.381 43.1072 769.925 43.1072C777.469 43.1072 784.258 44.6555 790.294 47.7519C796.329 50.8484 801.033 55.3162 804.405 61.1552C807.868 66.9058 809.599 73.6738 809.599 81.4592C809.599 89.2446 807.868 96.0569 804.405 101.896C801.033 107.647 796.329 112.07 790.294 115.167C784.258 118.263 777.469 119.811 769.925 119.811ZM769.925 94.3317C772.676 94.3317 774.984 93.2701 776.847 91.1468C778.711 88.935 779.643 85.7058 779.643 81.4592C779.643 77.2126 778.711 74.0277 776.847 71.9044C774.984 69.6926 772.676 68.5868 769.925 68.5868C767.173 68.5868 764.866 69.6926 763.002 71.9044C761.138 74.0277 760.206 77.2126 760.206 81.4592C760.206 85.7058 761.094 88.935 762.869 91.1468C764.733 93.2701 767.085 94.3317 769.925 94.3317ZM840.45 20.6799V118.882H810.895V20.6799H840.45ZM879.225 119.811C872.125 119.811 865.824 118.661 860.321 116.361C854.907 114.061 850.603 110.876 847.407 106.806C844.212 102.736 842.393 98.1359 841.949 93.0046H870.306C870.661 95.2164 871.593 96.8531 873.101 97.9148C874.699 98.9764 876.696 99.5072 879.092 99.5072C880.601 99.5072 881.799 99.1976 882.687 98.5783C883.574 97.8705 884.018 97.0301 884.018 96.0569C884.018 94.3759 883.086 93.1816 881.222 92.4738C879.359 91.7661 876.208 90.9698 871.77 90.0851C866.356 89.0235 861.874 87.8733 858.324 86.6348C854.863 85.3962 851.801 83.2729 849.138 80.2649C846.564 77.2569 845.277 73.0988 845.277 67.7905C845.277 63.1901 846.476 59.0319 848.872 55.3162C851.357 51.5119 854.996 48.5482 859.788 46.4249C864.581 44.2131 870.394 43.1072 877.228 43.1072C887.346 43.1072 895.245 45.5844 900.925 50.5388C906.694 55.4931 910.156 61.9515 911.31 69.9138H885.083C884.639 67.879 883.707 66.3308 882.287 65.2691C880.867 64.119 878.959 63.5439 876.563 63.5439C875.054 63.5439 873.9 63.8536 873.101 64.4729C872.303 65.0037 871.903 65.8442 871.903 66.9943C871.903 68.4983 872.835 69.6484 874.699 70.4446C876.563 71.1524 879.536 71.9044 883.619 72.7006C889.033 73.7623 893.603 74.9566 897.331 76.2837C901.059 77.6108 904.298 79.911 907.049 83.1844C909.801 86.3693 911.176 90.7929 911.176 96.455C911.176 100.879 909.89 104.86 907.316 108.399C904.742 111.937 901.014 114.724 896.133 116.759C891.34 118.794 885.704 119.811 879.225 119.811Z" fill="white"/>
</svg>
