<svg width="15" height="15" viewBox="0 0 15 15" fill="none" xmlns="http://www.w3.org/2000/svg">
<path d="M1.875 3.75H3.125H13.125" stroke="#363636" stroke-linecap="round" stroke-linejoin="round"/>
<path d="M5.00003 3.75V2.5C5.00003 2.16848 5.13173 1.85054 5.36615 1.61612C5.60057 1.3817 5.91851 1.25 6.25003 1.25H8.75003C9.08155 1.25 9.39949 1.3817 9.63391 1.61612C9.86834 1.85054 10 2.16848 10 2.5V3.75M11.875 3.75V12.5C11.875 12.8315 11.7433 13.1495 11.5089 13.3839C11.2745 13.6183 10.9566 13.75 10.625 13.75H4.37503C4.04351 13.75 3.72557 13.6183 3.49115 13.3839C3.25673 13.1495 3.12503 12.8315 3.12503 12.5V3.75H11.875Z" stroke="#363636" stroke-linecap="round" stroke-linejoin="round"/>
</svg>
